<svg xmlns="http://www.w3.org/2000/svg" width="25.955" height="23.629" viewBox="0 0 25.955 23.629">
  <g id="Grupo_81737" data-name="Grupo 81737" transform="translate(-293.795 -5092)">
    <path id="Trazado_113166" data-name="Trazado 113166" d="M676.8,1188.325c-2.657,0-5.318.074-7.972-.019-3.138-.11-4.955-1.907-5.008-5.013q-.116-6.682,0-13.367c.05-2.784,1.6-4.637,4.414-4.867a111.31,111.31,0,0,1,16.856-.023c2.748.192,4.469,2.257,4.541,5.1q.164,6.445.011,12.9c-.074,3.269-2.07,5.188-5.343,5.286-2.5.075-5,.015-7.5.015Z" transform="translate(-369.967 3927.271)" fill="#f1fcfe"/>
    <path id="Trazado_113167" data-name="Trazado 113167" d="M678.738,1180.218c0-1.407-.028-2.814.009-4.219.036-1.335.662-1.7,1.8-.934,2.074,1.4,4.135,2.809,6.2,4.216,1.074.732,1.033,1.46-.016,2.173-2.067,1.406-4.123,2.828-6.212,4.2-1.136.748-1.761.356-1.778-.983C678.723,1183.187,678.737,1181.7,678.738,1180.218Z" transform="translate(-375.528 3923.075)" fill="#ffc200"/>
  </g>
</svg>
